<svg width="1800" height="1800" viewBox="0 0 1800 1800" fill="none" xmlns="http://www.w3.org/2000/svg">
<g clip-path="url(#clip0_1501_208)">
<path d="M189.345 848.573L59.6038 760.186L65.5794 733.241L220.522 707.988L215.066 732.59L106.716 749.124C102.754 749.748 98.7265 750.357 94.634 750.951C90.4402 751.387 85.8271 751.866 80.7945 752.389L81.4007 749.656C85.7405 752.257 89.7041 754.706 93.2917 757.004C96.778 759.143 100.199 761.268 103.555 763.378L194.671 824.556L189.345 848.573ZM162.449 806.348L144.46 794.164L156.714 738.907L178.124 735.665L162.449 806.348Z" fill="#0C0C0C"/>
<path d="M240.593 663.512L119.372 658.953L129.307 635.794L184.271 639.568C189.785 639.903 194.793 640.237 199.292 640.572C203.791 640.906 208.264 641.301 212.711 641.758C217.035 642.162 221.815 642.689 227.049 643.339C221.466 638.767 215.935 634.073 210.457 629.257C204.979 624.44 199.719 619.79 194.679 615.307L154.144 577.896L163.606 555.84L250.764 639.802L240.593 663.512Z" fill="#0C0C0C"/>
<path d="M295.126 560.296C288.718 570.283 281.281 576.442 272.815 578.773C264.349 581.103 256.132 579.712 248.165 574.6C242.105 570.711 237.975 566.16 235.776 560.947C233.536 555.549 232.734 549.886 233.37 543.957C234.078 537.916 235.691 531.822 238.209 525.676L247.467 503.1C249.594 497.811 250.283 493.897 249.536 491.358C248.749 488.635 246.896 486.337 243.978 484.465C240.163 482.017 236.213 481.383 232.128 482.564C227.931 483.673 223.637 487.651 219.244 494.496C214.924 501.229 212.814 507.48 212.915 513.248C213.088 518.903 216.072 523.511 221.868 527.071L208.075 544.123C198.608 537.89 193.726 529.451 193.429 518.804C193.019 508.085 196.666 496.722 204.371 484.715C209.699 476.411 215.25 470.229 221.023 466.171C226.755 461.928 232.71 459.808 238.886 459.811C245.023 459.629 251.289 461.591 257.686 465.695L303.976 495.397C307.23 497.485 309.758 498.236 311.56 497.65C313.25 496.992 314.563 495.933 315.499 494.474C316.075 493.576 316.507 492.903 316.795 492.454C316.971 491.933 317.039 491.581 316.999 491.397L317.647 490.387L331.45 499.243C331.219 500.838 330.567 502.717 329.496 504.881C328.536 507.117 327.696 508.796 326.976 509.918C323.736 514.968 319.93 518.308 315.557 519.938C311.256 521.456 306.677 520.815 301.82 518.015L299.127 516.287C302.705 522.068 304.12 528.996 303.374 537.072C302.7 545.036 299.951 552.777 295.126 560.296ZM283.325 545.357C287.502 538.848 289.627 532.449 289.702 526.16C289.849 519.759 287.921 514.245 283.92 509.618L264.057 496.873L265.918 495.454C266.136 497.336 265.862 499.616 265.095 502.292C264.328 504.968 263.078 508.522 261.343 512.954L255.287 528.317C252.418 535.505 251.645 541.03 252.97 544.89C254.183 548.678 256.361 551.58 259.503 553.597C263.992 556.477 268.31 557.03 272.458 555.256C276.607 553.482 280.229 550.182 283.325 545.357Z" fill="#0C0C0C"/>
<path d="M344.263 487.085L257.117 414.836L272.052 396.822L359.198 469.071L344.263 487.085ZM243.771 402.732L223.447 385.882L237.616 368.792L257.94 385.641L243.771 402.732Z" fill="#0C0C0C"/>
<path d="M379.717 446.133L266.108 336.328L282.231 319.646L395.84 429.451L379.717 446.133Z" fill="#0C0C0C"/>
<path d="M442.481 389.247C433.259 396.715 424.264 400.225 415.494 399.778C406.725 399.33 399.362 395.428 393.404 388.071C388.873 382.476 386.382 376.858 385.932 371.218C385.501 365.39 386.519 359.761 388.986 354.332C391.556 348.82 395.002 343.541 399.324 338.497L415.206 319.973C418.887 315.62 420.771 312.121 420.86 309.476C420.968 306.643 419.931 303.88 417.749 301.186C414.896 297.663 411.345 295.82 407.096 295.658C402.764 295.392 397.437 297.819 391.116 302.937C384.899 307.972 380.932 313.243 379.216 318.751C377.603 324.175 378.988 329.487 383.371 334.687L364.92 346.542C357.891 337.651 355.908 328.104 358.97 317.903C361.949 307.599 368.982 297.957 380.069 288.979C387.737 282.769 394.949 278.645 401.704 276.606C408.479 274.379 414.798 274.237 420.661 276.18C426.544 277.936 431.877 281.767 436.66 287.673L471.273 330.415C473.707 333.42 475.871 334.928 477.766 334.937C479.577 334.843 481.156 334.251 482.503 333.16C483.332 332.488 483.954 331.985 484.368 331.649C484.699 331.21 484.874 330.897 484.894 330.709L485.826 329.954L496.147 342.699C495.427 344.14 494.218 345.719 492.521 347.437C490.908 349.258 489.583 350.588 488.547 351.428C483.884 355.204 479.221 357.178 474.557 357.352C469.998 357.442 465.852 355.394 462.12 351.21L460.107 348.723C461.687 355.336 460.854 362.358 457.608 369.791C454.466 377.14 449.424 383.625 442.481 389.247ZM435.972 371.357C441.981 366.49 446.01 361.083 448.057 355.136C450.207 349.105 450.11 343.265 447.765 337.615L432.913 319.274L435.126 318.512C434.741 320.367 433.764 322.445 432.195 324.745C430.627 327.045 428.323 330.026 425.283 333.688L414.708 346.37C409.724 352.293 407.255 357.295 407.301 361.376C407.262 365.354 408.417 368.793 410.767 371.694C414.123 375.839 418.049 377.721 422.545 377.34C427.04 376.959 431.516 374.965 435.972 371.357Z" fill="#0C0C0C"/>
<path d="M510.167 334.366L433.69 196.108L453.991 184.878L484.098 239.307C484.319 231.718 486.339 225.039 490.157 219.27C493.975 213.501 499.384 208.681 506.384 204.809C515.135 199.968 523.88 197.874 532.621 198.524C541.361 199.175 549.643 202.441 557.468 208.322C565.292 214.203 572.108 222.394 577.917 232.894C583.66 243.278 586.88 253.23 587.574 262.75C588.386 272.205 586.803 280.776 582.826 288.461C578.784 296.029 572.388 302.234 563.638 307.074C556.287 311.14 548.824 313.211 541.248 313.288C533.724 313.184 527.071 311.073 521.29 306.957L528.893 324.008L510.167 334.366ZM506.363 279.559C509.461 285.159 513.312 289.505 517.917 292.595C522.574 295.505 527.589 296.997 532.964 297.072C538.338 297.146 543.767 295.667 549.251 292.634C557.651 287.987 562.513 281.488 563.836 273.138C565.212 264.606 562.963 255.031 557.09 244.414C550.959 233.33 543.915 226.104 535.956 222.735C528.05 219.185 519.838 219.765 511.321 224.477C505.721 227.574 501.557 231.478 498.828 236.187C496.152 240.714 494.932 245.808 495.167 251.468C495.403 257.128 497.231 263.05 500.652 269.233L506.363 279.559Z" fill="#0C0C0C"/>
<path d="M627.585 274.501L569.66 127.503L591.244 118.997L649.17 265.996L627.585 274.501Z" fill="#0C0C0C"/>
<path d="M725.102 244.361C714.516 247.098 704.654 247.306 695.516 244.986C686.345 242.536 678.415 237.7 671.728 230.478C665.137 223.092 660.306 213.461 657.236 201.585C654.266 190.096 653.745 179.558 655.673 169.97C657.731 160.349 662.032 152.214 668.576 145.564C675.216 138.752 684.022 133.928 694.994 131.091C705.58 128.355 715.346 128.309 724.293 130.954C733.239 133.599 740.85 139.069 747.126 147.362C753.53 155.622 758.001 166.792 760.539 180.871L677.857 202.245L673.653 185.98L741.812 168.36L734.663 178.265C733.505 166.858 729.687 158.48 723.209 153.132C716.826 147.62 708.794 146.116 699.112 148.619C690.334 150.888 683.97 155.838 680.021 163.469C676.072 171.101 675.85 181.693 679.354 195.248C682.791 208.544 688.038 217.654 695.095 222.578C702.152 227.502 710.65 228.679 720.59 226.109C728.206 224.141 733.969 220.861 737.877 216.27C741.753 211.55 743.47 205.941 743.031 199.444L764.033 199.18C764.444 206.097 763.089 212.576 759.968 218.616C756.976 224.622 752.555 229.897 746.706 234.438C740.823 238.851 733.621 242.159 725.102 244.361Z" fill="#0C0C0C"/>
<path d="M846.586 221.147L845 75.3555L947.993 74.2349L948.218 94.8337L869.022 95.6954L870.384 220.888L846.586 221.147ZM866.506 158.526L866.284 138.128L939.079 137.336L939.301 157.734L866.506 158.526Z" fill="#0C0C0C"/>
<path d="M1015.72 232.213C1004.8 230.4 995.667 226.383 988.32 220.162C981.104 213.963 975.971 206.217 972.918 196.925C969.866 187.633 969.301 177.199 971.223 165.625C973.167 153.918 977.096 144.096 983.01 136.157C988.924 128.219 996.351 122.559 1005.29 119.178C1014.26 115.666 1024.13 114.805 1034.92 116.596C1045.83 118.409 1054.9 122.415 1062.11 128.615C1069.48 134.704 1074.62 142.45 1077.52 151.852C1080.55 161.275 1081.1 171.775 1079.18 183.35C1077.23 195.056 1073.31 204.878 1067.39 212.817C1061.63 220.645 1054.27 226.316 1045.31 229.828C1036.5 233.231 1026.63 234.026 1015.72 232.213ZM1018.93 212.878C1028.66 214.494 1036.78 212.396 1043.29 206.584C1049.82 200.64 1054.1 191.551 1056.13 179.319C1058.16 167.086 1057.02 157.234 1052.72 149.762C1048.44 142.158 1041.44 137.548 1031.7 135.932C1021.97 134.315 1013.77 136.468 1007.11 142.39C1000.59 148.335 996.328 157.291 994.34 169.261C992.308 181.493 993.432 191.411 997.711 199.015C1001.99 206.619 1009.06 211.24 1018.93 212.878Z" fill="#0C0C0C"/>
<path d="M1091.85 246.739L1126.03 138.821L1146.05 145.161L1142.25 161.79C1146.86 156.956 1151.78 153.761 1157.03 152.206C1162.45 150.564 1168.01 150.649 1173.73 152.461C1177.55 153.668 1180.41 154.996 1182.33 156.443L1175.69 177.416L1174.36 176.993C1173.46 176.29 1172.33 175.653 1170.97 175.083C1169.66 174.386 1168.3 173.816 1166.9 173.374C1159.78 171.119 1153.4 171.405 1147.75 174.231C1142.14 176.93 1137.83 181.718 1134.81 188.595L1114.16 253.803L1091.85 246.739Z" fill="#0C0C0C"/>
<path d="M1234.05 301.682L1278.4 157.035L1298.97 170.157L1259.21 289.024L1257.02 287.626L1349.9 202.64L1370.13 215.547L1331.65 334.998L1329.96 333.923L1420.88 247.922L1441.79 261.259L1328.65 362.023L1306.39 347.825L1343.6 231.839L1346.13 233.452L1256.31 315.88L1234.05 301.682Z" fill="#0C0C0C"/>
<path d="M1404.77 434.205C1397.01 426.321 1391.98 417.703 1389.69 408.352C1387.5 399.096 1387.9 389.812 1390.89 380.5C1393.89 371.189 1399.56 362.416 1407.92 354.181C1416.37 345.854 1425.33 340.217 1434.78 337.27C1444.23 334.324 1453.56 334.112 1462.78 336.632C1472.1 339.059 1480.59 344.167 1488.27 351.956C1496.03 359.84 1501.01 368.41 1503.21 377.666C1505.59 386.924 1505.19 396.208 1502.01 405.518C1498.92 414.923 1493.2 423.743 1484.84 431.977C1476.38 440.305 1467.43 445.942 1457.98 448.888C1448.72 451.835 1439.43 452.096 1430.11 449.669C1420.99 447.243 1412.54 442.088 1404.77 434.205ZM1418.74 420.45C1425.66 427.479 1433.46 430.554 1442.14 429.677C1450.92 428.705 1459.72 423.869 1468.56 415.167C1477.39 406.464 1482.26 397.827 1483.18 389.254C1484.19 380.587 1481.23 372.74 1474.3 365.711C1467.38 358.682 1459.48 355.605 1450.61 356.482C1441.84 357.453 1433.13 362.196 1424.48 370.711C1415.65 379.413 1410.73 388.097 1409.72 396.764C1408.71 405.43 1411.72 413.326 1418.74 420.45Z" fill="#0C0C0C"/>
<path d="M1457.83 490.707L1548.91 423.49L1561.38 440.387L1548.53 451.608C1555.1 450.405 1560.97 450.717 1566.13 452.544C1571.47 454.398 1575.93 457.74 1579.49 462.567C1581.86 465.786 1583.4 468.544 1584.11 470.843L1566.4 483.907L1565.57 482.78C1565.26 481.684 1564.72 480.507 1563.96 479.248C1563.3 477.909 1562.54 476.65 1561.67 475.47C1557.24 469.462 1551.9 465.941 1545.67 464.906C1539.55 463.792 1533.24 465.13 1526.76 468.92L1471.72 509.535L1457.83 490.707Z" fill="#0C0C0C"/>
<path d="M1538.94 618.942L1570.92 560.237L1546.19 552.091L1569.11 539.807L1635.61 559.779L1649.7 585.583L1589.39 566.103L1594.13 563.515L1552.17 643.166L1538.94 618.942ZM1502.43 552.061L1641.1 476.345L1652.31 496.883L1513.64 572.599L1502.43 552.061Z" fill="#0C0C0C"/>
<path d="M1581.17 765.73L1637.89 755.337L1580.55 749.032L1582.28 737.125L1638.95 749.337L1588.14 721.787L1594.71 711.213L1641.94 744.531L1605.85 699.157L1615.76 692.322L1646.84 740.919L1631 685.471L1642.68 682.737L1652.69 739.552L1659.38 682.117L1670.9 683.942L1658.69 740.613L1686.63 689.711L1696.81 696.366L1663.88 743.506L1708.86 707.513L1716.09 717.325L1667.1 748.503L1722.94 732.565L1725.67 744.25L1668.86 754.254L1726.29 760.948L1724.08 772.557L1667.8 760.254L1718.31 788.285L1712.05 798.377L1664.52 765.54L1700.51 810.524L1691.09 817.658L1659.52 768.763L1675.85 824.51L1664.16 827.243L1653.68 770.13L1647.46 827.863L1635.47 825.74L1647.77 769.458L1620.13 819.88L1609.65 813.705L1642.87 766.085L1597.5 802.169L1590.75 792.655L1639.26 761.179L1583.9 777.415L1581.17 765.73Z" fill="#0C0C0C"/>
<path d="M1609.89 951.272L1739.63 1039.66L1733.65 1066.6L1578.71 1091.86L1584.17 1067.25L1692.52 1050.72C1696.48 1050.1 1700.51 1049.49 1704.6 1048.89C1708.79 1048.46 1713.41 1047.98 1718.44 1047.46L1717.83 1050.19C1713.49 1047.59 1709.53 1045.14 1705.94 1042.84C1702.46 1040.7 1699.03 1038.58 1695.68 1036.47L1604.56 975.288L1609.89 951.272ZM1636.78 993.496L1654.77 1005.68L1642.52 1060.94L1621.11 1064.18L1636.78 993.496Z" fill="#0C0C0C"/>
<path d="M1558.64 1136.33L1679.86 1140.89L1669.93 1164.05L1614.96 1160.28C1609.45 1159.94 1604.44 1159.61 1599.94 1159.27C1595.44 1158.94 1590.97 1158.54 1586.52 1158.09C1582.2 1157.68 1577.42 1157.16 1572.18 1156.51C1577.77 1161.08 1583.3 1165.77 1588.78 1170.59C1594.25 1175.4 1599.51 1180.05 1604.55 1184.54L1645.09 1221.95L1635.63 1244L1548.47 1160.04L1558.64 1136.33Z" fill="#0C0C0C"/>
<path d="M1504.11 1239.55C1510.52 1229.56 1517.95 1223.4 1526.42 1221.07C1534.88 1218.74 1543.1 1220.13 1551.07 1225.24C1557.13 1229.13 1561.26 1233.68 1563.46 1238.9C1565.7 1244.29 1566.5 1249.96 1565.86 1255.89C1565.16 1261.93 1563.54 1268.02 1561.02 1274.17L1551.77 1296.74C1549.64 1302.03 1548.95 1305.95 1549.7 1308.49C1550.48 1311.21 1552.34 1313.51 1555.26 1315.38C1559.07 1317.83 1563.02 1318.46 1567.11 1317.28C1571.3 1316.17 1575.6 1312.19 1579.99 1305.35C1584.31 1298.62 1586.42 1292.36 1586.32 1286.6C1586.15 1280.94 1583.16 1276.33 1577.37 1272.77L1591.16 1255.72C1600.63 1261.95 1605.51 1270.39 1605.8 1281.04C1606.21 1291.76 1602.57 1303.12 1594.86 1315.13C1589.53 1323.43 1583.98 1329.61 1578.21 1333.67C1572.48 1337.92 1566.52 1340.04 1560.35 1340.03C1554.21 1340.22 1547.94 1338.25 1541.55 1334.15L1495.26 1304.45C1492 1302.36 1489.48 1301.61 1487.67 1302.19C1485.98 1302.85 1484.67 1303.91 1483.73 1305.37C1483.16 1306.27 1482.73 1306.94 1482.44 1307.39C1482.26 1307.91 1482.19 1308.26 1482.23 1308.45L1481.59 1309.46L1467.78 1300.6C1468.01 1299.01 1468.67 1297.13 1469.74 1294.96C1470.7 1292.73 1471.54 1291.05 1472.26 1289.93C1475.5 1284.88 1479.3 1281.54 1483.68 1279.91C1487.98 1278.39 1492.56 1279.03 1497.41 1281.83L1500.11 1283.56C1496.53 1277.78 1495.11 1270.85 1495.86 1262.77C1496.53 1254.81 1499.28 1247.07 1504.11 1239.55ZM1515.91 1254.49C1511.73 1261 1509.61 1267.39 1509.53 1273.68C1509.38 1280.08 1511.31 1285.6 1515.31 1290.23L1535.18 1302.97L1533.31 1304.39C1533.1 1302.51 1533.37 1300.23 1534.14 1297.55C1534.91 1294.88 1536.16 1291.32 1537.89 1286.89L1543.95 1271.53C1546.82 1264.34 1547.59 1258.81 1546.26 1254.95C1545.05 1251.17 1542.87 1248.26 1539.73 1246.25C1535.24 1243.37 1530.92 1242.81 1526.78 1244.59C1522.63 1246.36 1519 1249.66 1515.91 1254.49Z" fill="#0C0C0C"/>
<path d="M1454.97 1312.76L1542.12 1385.01L1527.18 1403.02L1440.04 1330.77L1454.97 1312.76ZM1555.46 1397.11L1575.79 1413.96L1561.62 1431.05L1541.29 1414.2L1555.46 1397.11Z" fill="#0C0C0C"/>
<path d="M1419.52 1353.71L1533.13 1463.52L1517 1480.2L1403.39 1370.39L1419.52 1353.71Z" fill="#0C0C0C"/>
<path d="M1356.75 1410.6C1365.97 1403.13 1374.97 1399.62 1383.74 1400.07C1392.51 1400.51 1399.87 1404.42 1405.83 1411.77C1410.36 1417.37 1412.85 1422.99 1413.3 1428.63C1413.73 1434.45 1412.71 1440.08 1410.25 1445.51C1407.68 1451.02 1404.23 1456.3 1399.91 1461.35L1384.03 1479.87C1380.35 1484.22 1378.46 1487.72 1378.37 1490.37C1378.27 1493.2 1379.3 1495.96 1381.48 1498.66C1384.34 1502.18 1387.89 1504.02 1392.14 1504.19C1396.47 1504.45 1401.8 1502.03 1408.12 1496.91C1414.33 1491.87 1418.3 1486.6 1420.02 1481.09C1421.63 1475.67 1420.25 1470.36 1415.86 1465.16L1434.31 1453.3C1441.34 1462.19 1443.33 1471.74 1440.26 1481.94C1437.28 1492.25 1430.25 1501.89 1419.16 1510.87C1411.5 1517.08 1404.28 1521.2 1397.53 1523.24C1390.75 1525.47 1384.43 1525.61 1378.57 1523.66C1372.69 1521.91 1367.36 1518.08 1362.57 1512.17L1327.96 1469.43C1325.53 1466.42 1323.36 1464.92 1321.47 1464.91C1319.66 1465 1318.08 1465.59 1316.73 1466.68C1315.9 1467.36 1315.28 1467.86 1314.87 1468.19C1314.53 1468.63 1314.36 1468.95 1314.34 1469.14L1313.41 1469.89L1303.09 1457.15C1303.81 1455.7 1305.01 1454.12 1306.71 1452.41C1308.33 1450.59 1309.65 1449.26 1310.69 1448.42C1315.35 1444.64 1320.01 1442.67 1324.68 1442.49C1329.24 1442.4 1333.38 1444.45 1337.11 1448.63L1339.13 1451.12C1337.55 1444.51 1338.38 1437.49 1341.63 1430.05C1344.77 1422.7 1349.81 1416.22 1356.75 1410.6ZM1363.26 1428.49C1357.25 1433.35 1353.22 1438.76 1351.18 1444.71C1349.03 1450.74 1349.12 1456.58 1351.47 1462.23L1366.32 1480.57L1364.11 1481.33C1364.49 1479.48 1365.47 1477.4 1367.04 1475.1C1368.61 1472.8 1370.91 1469.82 1373.95 1466.16L1384.53 1453.47C1389.51 1447.55 1391.98 1442.55 1391.93 1438.47C1391.97 1434.49 1390.82 1431.05 1388.47 1428.15C1385.11 1424.01 1381.18 1422.12 1376.69 1422.5C1372.19 1422.88 1367.72 1424.88 1363.26 1428.49Z" fill="#0C0C0C"/>
<path d="M1289.07 1465.48L1365.54 1603.74L1345.24 1614.97L1315.14 1560.54C1314.91 1568.13 1312.89 1574.81 1309.08 1580.57C1305.26 1586.34 1299.85 1591.16 1292.85 1595.04C1284.1 1599.88 1275.35 1601.97 1266.61 1601.32C1257.87 1600.67 1249.59 1597.4 1241.77 1591.52C1233.94 1585.64 1227.13 1577.45 1221.32 1566.95C1215.57 1556.57 1212.35 1546.61 1211.66 1537.09C1210.85 1527.64 1212.43 1519.07 1216.41 1511.38C1220.45 1503.81 1226.85 1497.61 1235.6 1492.77C1242.95 1488.7 1250.41 1486.63 1257.99 1486.56C1265.51 1486.66 1272.16 1488.77 1277.94 1492.89L1270.34 1475.84L1289.07 1465.48ZM1292.87 1520.29C1289.77 1514.69 1285.92 1510.34 1281.32 1507.25C1276.66 1504.34 1271.64 1502.85 1266.27 1502.77C1260.9 1502.7 1255.47 1504.18 1249.98 1507.21C1241.58 1511.86 1236.72 1518.36 1235.4 1526.71C1234.02 1535.24 1236.27 1544.81 1242.14 1555.43C1248.27 1566.51 1255.32 1573.74 1263.28 1577.11C1271.18 1580.66 1279.4 1580.08 1287.91 1575.37C1293.51 1572.27 1297.68 1568.37 1300.41 1563.66C1303.08 1559.13 1304.3 1554.04 1304.07 1548.38C1303.83 1542.72 1302 1536.79 1298.58 1530.61L1292.87 1520.29Z" fill="#0C0C0C"/>
<path d="M1171.65 1525.34L1229.57 1672.34L1207.99 1680.85L1150.06 1533.85L1171.65 1525.34Z" fill="#0C0C0C"/>
<path d="M1074.13 1555.48C1084.72 1552.75 1094.58 1552.54 1103.72 1554.86C1112.89 1557.31 1120.82 1562.14 1127.51 1569.37C1134.1 1576.75 1138.93 1586.38 1142 1598.26C1144.97 1609.75 1145.49 1620.29 1143.56 1629.87C1141.5 1639.5 1137.2 1647.63 1130.66 1654.28C1124.02 1661.09 1115.21 1665.92 1104.24 1668.75C1093.65 1671.49 1083.89 1671.53 1074.94 1668.89C1065.99 1666.24 1058.38 1660.78 1052.11 1652.48C1045.7 1644.22 1041.23 1633.05 1038.69 1618.97L1121.38 1597.6L1125.58 1613.86L1057.42 1631.48L1064.57 1621.58C1065.73 1632.99 1069.55 1641.36 1076.02 1646.71C1082.41 1652.22 1090.44 1653.73 1100.12 1651.23C1108.9 1648.96 1115.26 1644.01 1119.21 1636.37C1123.16 1628.74 1123.38 1618.15 1119.88 1604.6C1116.44 1591.3 1111.2 1582.19 1104.14 1577.27C1097.08 1572.34 1088.58 1571.17 1078.64 1573.73C1071.03 1575.7 1065.26 1578.98 1061.36 1583.57C1057.48 1588.29 1055.76 1593.9 1056.2 1600.4L1035.2 1600.66C1034.79 1593.75 1036.14 1587.27 1039.27 1581.23C1042.26 1575.22 1046.68 1569.95 1052.53 1565.41C1058.41 1560.99 1065.61 1557.69 1074.13 1555.48Z" fill="#0C0C0C"/>
<path d="M952.648 1578.7L954.234 1724.49L851.24 1725.61L851.016 1705.01L930.211 1704.15L928.849 1578.96L952.648 1578.7ZM932.728 1641.32L932.95 1661.72L860.154 1662.51L859.932 1642.11L932.728 1641.32Z" fill="#0C0C0C"/>
<path d="M783.518 1567.63C794.435 1569.44 803.567 1573.46 810.914 1579.68C818.129 1585.88 823.263 1593.63 826.315 1602.92C829.367 1612.21 829.932 1622.64 828.01 1634.22C826.066 1645.93 822.137 1655.75 816.223 1663.69C810.31 1671.63 802.882 1677.28 793.941 1680.67C784.978 1684.18 775.103 1685.04 764.318 1683.25C753.401 1681.43 744.334 1677.43 737.119 1671.23C729.75 1665.14 724.617 1657.39 721.718 1647.99C718.687 1638.57 718.133 1628.07 720.055 1616.49C721.999 1604.79 725.928 1594.97 731.842 1587.03C737.602 1579.2 744.964 1573.53 753.927 1570.02C762.737 1566.61 772.601 1565.82 783.518 1567.63ZM780.307 1586.97C770.573 1585.35 762.453 1587.45 755.947 1593.26C749.418 1599.2 745.138 1608.29 743.106 1620.53C741.075 1632.76 742.21 1642.61 746.51 1650.08C750.789 1657.69 757.795 1662.3 767.529 1663.91C777.262 1665.53 785.459 1663.38 792.119 1657.45C798.648 1651.51 802.906 1642.55 804.894 1630.58C806.925 1618.35 805.801 1608.43 801.522 1600.83C797.244 1593.23 790.172 1588.6 780.307 1586.97Z" fill="#0C0C0C"/>
<path d="M707.384 1553.11L673.208 1661.02L653.188 1654.68L656.986 1638.05C652.378 1642.89 647.45 1646.08 642.202 1647.64C636.787 1649.28 631.22 1649.2 625.5 1647.38C621.686 1646.18 618.82 1644.85 616.901 1643.4L623.543 1622.43L624.877 1622.85C625.773 1623.55 626.9 1624.19 628.258 1624.76C629.576 1625.46 630.934 1626.03 632.332 1626.47C639.451 1628.72 645.835 1628.44 651.485 1625.61C657.095 1622.91 661.408 1618.13 664.425 1611.25L685.075 1546.04L707.384 1553.11Z" fill="#0C0C0C"/>
<path d="M565.181 1498.16L520.831 1642.81L500.26 1629.69L540.026 1510.82L542.218 1512.22L449.338 1597.2L429.104 1584.3L467.583 1464.85L469.269 1465.92L378.351 1551.92L357.443 1538.59L470.588 1437.82L492.845 1452.02L455.629 1568.01L453.099 1566.39L542.924 1483.96L565.181 1498.16Z" fill="#0C0C0C"/>
<path d="M394.46 1365.64C402.226 1373.52 407.253 1382.14 409.54 1391.49C411.733 1400.75 411.334 1410.03 408.341 1419.34C405.348 1428.66 399.672 1437.43 391.314 1445.66C382.86 1453.99 373.908 1459.63 364.457 1462.57C355.007 1465.52 345.671 1465.73 336.45 1463.21C327.135 1460.79 318.64 1455.68 310.967 1447.89C303.201 1440 298.221 1431.43 296.028 1422.18C293.646 1412.92 294.046 1403.64 297.227 1394.33C300.315 1384.92 306.038 1376.1 314.396 1367.87C322.85 1359.54 331.802 1353.9 341.253 1350.96C350.515 1348.01 359.804 1347.75 369.119 1350.18C378.247 1352.6 386.694 1357.76 394.46 1365.64ZM380.497 1379.39C373.573 1372.37 365.77 1369.29 357.09 1370.17C348.314 1371.14 339.509 1375.98 330.676 1384.68C321.842 1393.38 316.969 1402.02 316.056 1410.59C315.048 1419.26 318.006 1427.1 324.93 1434.13C331.855 1441.16 339.751 1444.24 348.621 1443.36C357.396 1442.39 366.106 1437.65 374.75 1429.13C383.583 1420.43 388.504 1411.75 389.512 1403.08C390.52 1394.41 387.515 1386.52 380.497 1379.39Z" fill="#0C0C0C"/>
<path d="M341.406 1309.14L250.323 1376.35L237.853 1359.46L250.701 1348.24C244.131 1349.44 238.267 1349.13 233.107 1347.3C227.761 1345.45 223.307 1342.1 219.744 1337.28C217.369 1334.06 215.83 1331.3 215.128 1329L232.83 1315.94L233.661 1317.06C233.973 1318.16 234.51 1319.34 235.274 1320.6C235.93 1321.94 236.694 1323.19 237.565 1324.37C241.998 1330.38 247.331 1333.9 253.563 1334.94C259.688 1336.05 265.992 1334.71 272.475 1330.92L327.511 1290.31L341.406 1309.14Z" fill="#0C0C0C"/>
<path d="M260.292 1180.9L228.313 1239.61L253.041 1247.75L230.125 1260.04L163.62 1240.07L149.531 1214.26L209.843 1233.74L205.103 1236.33L247.065 1156.68L260.292 1180.9ZM296.808 1247.78L158.132 1323.5L146.919 1302.96L285.594 1227.24L296.808 1247.78Z" fill="#0C0C0C"/>
<path d="M218.065 1034.11L161.341 1044.51L218.684 1050.81L216.951 1062.72L160.28 1050.51L211.091 1078.06L204.527 1088.63L157.296 1055.31L193.38 1100.69L183.476 1107.52L152.39 1058.93L168.236 1114.37L156.552 1117.11L146.548 1060.29L139.854 1117.73L128.336 1115.9L140.548 1059.23L112.608 1110.13L102.424 1103.48L135.353 1056.34L90.3685 1092.33L83.1436 1082.52L132.13 1051.34L76.2921 1067.28L73.5587 1055.59L130.373 1045.59L72.939 1038.9L75.1528 1027.29L131.435 1039.59L80.922 1011.56L87.1879 1001.47L134.717 1034.3L98.7243 989.32L108.147 982.186L139.714 1031.08L123.387 975.335L135.072 972.601L145.556 1029.71L151.769 971.981L163.768 974.104L151.465 1030.39L179.106 979.964L189.588 986.139L156.362 1033.76L201.735 997.676L208.48 1007.19L159.974 1038.67L215.331 1022.43L218.065 1034.11Z" fill="#0C0C0C"/>
</g>
<defs>
<clipPath id="clip0_1501_208">
<rect width="1800" height="1800" fill="white"/>
</clipPath>
</defs>
</svg>
