<svg width="200" height="87" viewBox="0 0 200 87" fill="none" xmlns="http://www.w3.org/2000/svg">
<g clip-path="url(#clip0_2165_7)">
<path d="M5.184 72V19.512H32.328C35.832 19.512 38.856 20.088 41.4 21.24C43.992 22.392 45.984 24.048 47.376 26.208C48.768 28.32 49.464 30.888 49.464 33.912C49.464 36.936 48.72 39.552 47.232 41.76C45.744 43.92 43.656 45.456 40.968 46.368C43.224 46.8 44.904 47.472 46.008 48.384C47.112 49.296 47.832 50.4 48.168 51.696C48.504 52.992 48.672 54.504 48.672 56.232V68.328C48.672 68.904 48.744 69.48 48.888 70.056C49.08 70.584 49.416 70.992 49.896 71.28V72H38.088C37.848 71.472 37.656 70.872 37.512 70.2C37.368 69.528 37.296 68.616 37.296 67.464V57.528C37.296 55.752 37.008 54.384 36.432 53.424C35.856 52.416 34.488 51.912 32.328 51.912H16.56V72H5.184ZM16.56 42.696H29.808C32.352 42.696 34.296 42.096 35.64 40.896C36.984 39.648 37.656 37.968 37.656 35.856C37.656 33.6 36.936 31.92 35.496 30.816C34.104 29.664 32.256 29.088 29.952 29.088H16.56V42.696ZM63.4438 84.6C62.4838 84.6 61.4998 84.528 60.4918 84.384C59.5318 84.24 58.7638 84.048 58.1878 83.808V75.24H58.7638C59.0518 75.384 59.4358 75.48 59.9158 75.528C60.3958 75.624 60.8758 75.672 61.3558 75.672C62.9878 75.672 64.3078 75.384 65.3158 74.808C66.3238 74.232 67.0918 73.2 67.6198 71.712L68.3398 69.768L52.8598 30.528H65.0278L69.9958 46.224C70.3798 47.424 70.8118 48.816 71.2918 50.4C71.7718 51.936 72.2518 53.592 72.7318 55.368C73.2118 57.144 73.6678 59.04 74.0998 61.056H73.5238C74.0038 59.04 74.4598 57.216 74.8918 55.584C75.3238 53.952 75.7558 52.392 76.1878 50.904C76.6678 49.416 77.1478 47.856 77.6278 46.224L82.7398 30.528H93.7558L77.7718 74.232C76.8598 76.776 75.7558 78.792 74.4598 80.28C73.2118 81.816 71.6758 82.92 69.8518 83.592C68.0758 84.264 65.9398 84.6 63.4438 84.6ZM107.268 72.72C103.044 72.72 99.6836 71.64 97.1876 69.48C94.7396 67.32 93.5156 64.464 93.5156 60.912C93.5156 58.464 94.0196 56.376 95.0276 54.648C96.0836 52.92 97.5476 51.528 99.4196 50.472C101.34 49.416 103.596 48.672 106.188 48.24L115.188 46.728C116.724 46.44 117.78 45.96 118.356 45.288C118.98 44.616 119.292 43.704 119.292 42.552C119.292 41.112 118.764 40.008 117.708 39.24C116.7 38.472 115.092 38.088 112.884 38.088C110.436 38.088 108.54 38.616 107.196 39.672C105.9 40.728 105.252 42.36 105.252 44.568L95.0276 43.416C94.9796 39.144 96.6116 35.808 99.9236 33.408C103.236 31.008 107.628 29.808 113.1 29.808C117.132 29.808 120.42 30.36 122.964 31.464C125.556 32.52 127.452 34.032 128.652 36C129.9 37.968 130.524 40.344 130.524 43.128V60.984C130.524 62.184 130.764 62.976 131.244 63.36C131.772 63.744 132.348 63.936 132.972 63.936C133.26 63.936 133.5 63.936 133.692 63.936C133.884 63.888 134.052 63.84 134.196 63.792H134.628V71.568C133.956 71.904 133.092 72.144 132.036 72.288C131.028 72.432 130.092 72.504 129.228 72.504C126.924 72.504 125.028 72.024 123.54 71.064C122.052 70.104 121.164 68.64 120.876 66.672L120.804 65.88C119.556 68.04 117.756 69.72 115.404 70.92C113.052 72.12 110.34 72.72 107.268 72.72ZM110.724 64.656C113.124 64.656 115.092 64.104 116.628 63C118.212 61.896 119.196 60.36 119.58 58.392V52.056L120.3 52.416C119.724 52.752 119.028 53.04 118.212 53.28C117.444 53.52 116.484 53.76 115.332 54L109.932 55.008C108.012 55.344 106.668 55.968 105.9 56.88C105.18 57.792 104.82 58.8 104.82 59.904C104.82 61.44 105.348 62.616 106.404 63.432C107.46 64.248 108.9 64.656 110.724 64.656ZM138.742 72V30.528H149.038L149.47 36.144C151.054 33.936 152.854 32.328 154.87 31.32C156.886 30.312 159.286 29.808 162.07 29.808C166.342 29.808 169.726 31.032 172.222 33.48C174.766 35.88 176.038 39.408 176.038 44.064V72H164.878V45.864C164.878 43.848 164.278 42.312 163.078 41.256C161.926 40.152 160.27 39.6 158.11 39.6C156.67 39.6 155.35 39.912 154.15 40.536C152.95 41.16 151.966 42.072 151.198 43.272C150.478 44.472 150.07 45.888 149.974 47.52V72H138.742ZM181.239 72V61.272H191.751V72H181.239Z" fill="#0F0F0F"/>
</g>
<defs>
<clipPath id="clip0_2165_7">
<rect width="200" height="87" fill="white"/>
</clipPath>
</defs>
</svg>
